<mxfile host="app.diagrams.net" modified="2020-09-21T12:36:29.764Z" agent="5.0 (Windows)" etag="XIGoCN6Sf-4ABmtpclhn" version="13.7.3" type="github">
  <diagram id="-d4Anz3b1Sa5R3Yg9jtf" name="Page-1">
    <mxGraphModel dx="868" dy="518" grid="1" gridSize="10" guides="1" tooltips="1" connect="1" arrows="1" fold="1" page="1" pageScale="1" pageWidth="850" pageHeight="1100" math="0" shadow="0">
      <root>
        <mxCell id="0" />
        <mxCell id="1" parent="0" />
        <mxCell id="x2xCLD3fM78sgAY7oUjL-1" value="&lt;font style=&quot;font-size: 18px&quot;&gt;&lt;b&gt;User&lt;/b&gt;&lt;/font&gt;" style="rounded=0;whiteSpace=wrap;html=1;" vertex="1" parent="1">
          <mxGeometry x="100" y="110" width="120" height="60" as="geometry" />
        </mxCell>
        <mxCell id="x2xCLD3fM78sgAY7oUjL-2" value="" style="shape=link;html=1;width=27;exitX=1;exitY=0.5;exitDx=0;exitDy=0;" edge="1" parent="1" source="x2xCLD3fM78sgAY7oUjL-1" target="x2xCLD3fM78sgAY7oUjL-3">
          <mxGeometry width="100" relative="1" as="geometry">
            <mxPoint x="230" y="139.5" as="sourcePoint" />
            <mxPoint x="300" y="140" as="targetPoint" />
          </mxGeometry>
        </mxCell>
        <mxCell id="x2xCLD3fM78sgAY7oUjL-3" value="&lt;font style=&quot;font-size: 18px&quot;&gt;&lt;b&gt;login&lt;/b&gt;&lt;/font&gt;" style="ellipse;whiteSpace=wrap;html=1;aspect=fixed;" vertex="1" parent="1">
          <mxGeometry x="290" y="100" width="80" height="80" as="geometry" />
        </mxCell>
        <mxCell id="x2xCLD3fM78sgAY7oUjL-4" value="" style="endArrow=classic;html=1;" edge="1" parent="1">
          <mxGeometry width="50" height="50" relative="1" as="geometry">
            <mxPoint x="370" y="146" as="sourcePoint" />
            <mxPoint x="470" y="146" as="targetPoint" />
          </mxGeometry>
        </mxCell>
        <mxCell id="x2xCLD3fM78sgAY7oUjL-5" value="demanded song" style="text;html=1;strokeColor=none;fillColor=none;align=center;verticalAlign=middle;whiteSpace=wrap;rounded=0;" vertex="1" parent="1">
          <mxGeometry x="390" y="120" width="40" height="20" as="geometry" />
        </mxCell>
        <mxCell id="x2xCLD3fM78sgAY7oUjL-6" value="&lt;font style=&quot;font-size: 18px&quot;&gt;&lt;b&gt;display of song&lt;br&gt;&lt;/b&gt;&lt;/font&gt;" style="rounded=0;whiteSpace=wrap;html=1;" vertex="1" parent="1">
          <mxGeometry x="470" y="110" width="120" height="60" as="geometry" />
        </mxCell>
        <mxCell id="x2xCLD3fM78sgAY7oUjL-7" value="&lt;div&gt;song&lt;/div&gt;&lt;div&gt;req&lt;br&gt;&lt;/div&gt;" style="text;html=1;strokeColor=none;fillColor=none;align=center;verticalAlign=middle;whiteSpace=wrap;rounded=0;" vertex="1" parent="1">
          <mxGeometry x="230" y="90" width="40" height="30" as="geometry" />
        </mxCell>
        <mxCell id="x2xCLD3fM78sgAY7oUjL-8" value="" style="endArrow=classic;html=1;entryX=0.25;entryY=1;entryDx=0;entryDy=0;" edge="1" parent="1" target="x2xCLD3fM78sgAY7oUjL-1">
          <mxGeometry width="50" height="50" relative="1" as="geometry">
            <mxPoint x="320" y="180" as="sourcePoint" />
            <mxPoint x="150" y="220" as="targetPoint" />
            <Array as="points">
              <mxPoint x="320" y="240" />
              <mxPoint x="240" y="240" />
              <mxPoint x="130" y="240" />
            </Array>
          </mxGeometry>
        </mxCell>
        <mxCell id="x2xCLD3fM78sgAY7oUjL-9" value="&lt;font style=&quot;font-size: 18px&quot;&gt;&lt;b&gt;song&lt;/b&gt;&lt;/font&gt;" style="text;html=1;strokeColor=none;fillColor=none;align=center;verticalAlign=middle;whiteSpace=wrap;rounded=0;" vertex="1" parent="1">
          <mxGeometry x="210" y="210" width="40" height="20" as="geometry" />
        </mxCell>
      </root>
    </mxGraphModel>
  </diagram>
</mxfile>
